# xmcd CD database file
#
# Track frame offsets:
#	150
#	15784
#	40663
#	56155
#	72988
#	93224
#	112237
#	132062
#	152796
#	171789
#	189176
#	211077
#
# Disc length: 2983 seconds
#
# Revision: 0
# Processed by: cddbd v1.4PL0 Copyright (c) Steve Scherf et al.
# Submitted via: CDex 1.50beta10
#
DISCID=940ba50c
DTITLE=Becky Barksdale - Out Of The Blue
DYEAR=2003
DGENRE=Blues
TTITLE0=Make My Move
TTITLE1=Bone In Your Back
TTITLE2=The Real Thing
TTITLE3=To Be Beautiful
TTITLE4=Satisfy Me
TTITLE5=Out Of The Blue
TTITLE6=Come On In And Play
TTITLE7=Bulletproof
TTITLE8=Goin' Home
TTITLE9=Muddy Water
TTITLE10=Hip Shake
TTITLE11=Insurance
EXTD=YEAR: 2003
EXTT0=
EXTT1=
EXTT2=
EXTT3=
EXTT4=
EXTT5=
EXTT6=
EXTT7=
EXTT8=
EXTT9=
EXTT10=
EXTT11=
PLAYORDER=
